<?xml version="1.0" encoding="UTF-8"?>
<svg id="Layer_1" data-name="Layer 1" xmlns="http://www.w3.org/2000/svg" viewBox="0 0 1880.7 759.58">
  <defs>
    <style>
      .cls-1 {
        fill: #fff;
        stroke-width: 0px;
      }
    </style>
  </defs>
  <path class="cls-1" d="M738.88,394.97c-4.03-44.28-35.89-76.15-88.23-76.15s-92.26,39.92-92.26,95.28,40.93,95.94,97.62,95.94c34.22,0,57.03-13.75,70.45-27.84,12.42-13.09,7.16-34.9-9.76-40.52-9.17-3.04-20.09.63-26.13,8.01-6.37,7.72-17.44,16.74-33.88,16.74-26.17,0-42.94-16.1-45.96-37.91h97.96c18.12,0,32.21-15.77,30.19-33.55ZM612.08,391.28c4.69-20.46,18.12-32.54,38.58-32.54s34.22,13.08,36.23,32.54h-74.81Z"/>
  <path class="cls-1" d="M931.68,249.55c-14.42,0-25.83,11.41-25.83,25.16v60.46c-13.7-13.3-32.18-18.53-52.67-18.53-54.35,0-92.93,42.94-92.93,94.94s35.56,95.94,93.26,95.94c19.2,0,40.32-5.23,56.02-20.84v16.82h46.97v-228.79c0-13.76-11.07-25.16-24.82-25.16ZM859.55,462.24c-29.86,0-47.3-22.81-47.3-50.66,0-30.19,20.46-49.99,47.3-49.99,30.19,0,46.29,22.47,46.29,49.99,0,30.86-19.46,50.66-46.29,50.66Z"/>
  <path class="cls-1" d="M1086.73,318.81c-36.23,0-67.43,17.78-84.87,46.29-9.06,14.43-13.42,30.87-13.42,49.32,0,36.57,19.12,66.76,48.98,83.2,14.76,8.39,31.2,12.41,49.32,12.41,55.35,0,97.96-40.25,97.96-95.61s-42.61-95.61-97.96-95.61ZM1086.73,464.75c-27.17,0-46.29-20.8-46.29-50.32s19.12-50.32,46.29-50.32,45.96,21.13,45.96,50.32-18.79,50.32-45.96,50.32Z"/>
  <path class="cls-1" d="M1275.91,458.11c-10.07-.21-14.76-5.37-14.76-16.77v-189.28h-50.32v193.23c0,44.95,23.82,64.41,58.71,64.41,23.82,0,35.44-12.96,35.44-27.38,0-12.84-9.14-23.8-29.07-24.2Z"/>
  <path class="cls-1" d="M1616.41,398.32l-29.19-8.38c-7.38-2.01-19.8-6.04-19.8-16.44,0-8.05,7.05-14.43,20.8-14.43,18.12,0,31.53,13.42,36.23,24.15l39.25-17.11c-11.73-28.61-41.26-47.3-75.48-47.3-36.23,0-69.45,18.45-69.45,57.03,0,28.18,19.12,44.95,46.63,53.01l31.2,9.06c18.46,5.37,18.12,14.43,18.12,17.11,0,5.7-6.37,16.77-22.48,16.77-21.47,0-32.47-13.31-38.66-24.64-4.48-8.2-16.42-14.55-28.73-9.77-13.15,5.11-19,21.05-12.63,32.46,10.4,18.79,35.07,40.19,80.02,40.19,39.93,0,71.46-20.46,71.46-57.03,0-20.46-10.4-43.95-47.3-54.68Z"/>
  <path class="cls-1" d="M273.49,257.29c-15.3-.24-29.77,5.5-40.75,16.14-10.98,10.64-17.16,24.93-17.4,40.23-.48,30.99,23.89,56.69,54.64,58.08.57.02,1.14.04,1.72.05.38,0,.75,0,1.12,0,12.14-.4,21.8-10.23,21.98-22.38.1-6.08-2.18-11.83-6.41-16.19-4.23-4.36-9.9-6.83-15.98-6.91-6.5-.11-11.68-5.45-11.58-11.94.05-3.14,1.32-6.07,3.58-8.26,2.23-2.16,5.27-3.37,8.37-3.31,12.55.16,22.91-9.89,23.1-22.39.19-12.54-9.83-22.93-22.39-23.1Z"/>
  <path class="cls-1" d="M272.78,460.28c-3.09.05-6.14-1.15-8.37-3.31-2.26-2.19-3.53-5.12-3.58-8.26-.1-6.48,5.07-11.83,11.58-11.94,6.07-.09,11.75-2.55,15.98-6.91,4.23-4.36,6.51-10.11,6.41-16.19-.18-12.15-9.84-21.98-21.98-22.38-.37-.01-.74-.02-1.12,0-.58,0-1.15.02-1.72.05-30.76,1.39-55.12,27.09-54.64,58.08.24,15.3,6.42,29.58,17.4,40.23,10.98,10.64,25.45,16.38,40.75,16.14,12.56-.18,22.58-10.56,22.39-23.1-.2-12.5-10.55-22.55-23.1-22.39Z"/>
  <path class="cls-1" d="M472.87,272.18c-16.36-8.8-35.81-14.91-52.55-14.91-13.83,0-26.4,7.95-26.4,23.06h0c-.21,12.16,8.81,21.87,19.97,22.95,30.13,2.91,69.72,19.71,69.72,77.59,0,48.64-30.87,79.84-79.84,79.84h-31.5v-180.77c0-14.36-11.64-26-26-26h0c-14.36,0-26,11.64-26,26v226.06h82.15c54.01,0,94.94-22.81,116.74-60.72,11.07-18.79,16.44-40.26,16.44-64.41,0-48.31-22.82-87.22-62.74-108.7Z"/>
  <path class="cls-1" d="M1487.95,394.97c-4.03-44.28-35.89-76.15-88.23-76.15s-92.26,39.92-92.26,95.28,40.93,95.94,97.62,95.94c34.22,0,57.03-13.75,70.45-27.84,12.42-13.09,7.16-34.9-9.76-40.52-9.17-3.04-20.09.63-26.13,8.01-6.37,7.72-17.44,16.74-33.88,16.74-26.17,0-42.94-16.1-45.96-37.91h97.96c18.12,0,32.21-15.77,30.19-33.55ZM1361.14,391.28c4.69-20.46,18.12-32.54,38.58-32.54s34.22,13.08,36.23,32.54h-74.81Z"/>
</svg>